<svg width="297" height="182" viewBox="0 0 297 182" fill="none" xmlns="http://www.w3.org/2000/svg">
<path d="M2.50007 2.50006C53.4578 4.79264 109.488 19.6567 150.414 51.5611C161.543 60.2369 215.905 102.252 196.539 119.951C187.263 128.428 179.411 116.526 177.303 108.39C173.153 92.3734 171.294 79.31 174.456 62.5838C179.337 36.7659 192.688 1.08626 224.431 3.42462C238.131 4.43381 247.062 22.1589 248.237 33.6894C249.388 44.9941 247.064 55.3414 245.13 66.3925C243.557 75.3745 243.089 73.7763 251.947 71.481C274.18 65.7199 307.777 81.3448 288.347 107.094C277.446 121.541 262.091 127.639 246.337 134.649C240.419 137.283 230.392 142.145 223.851 142.195C216.729 142.249 221.219 134.649 225.656 132.838C236.686 128.337 243.997 129.19 252.098 138.054C259.425 146.071 262.911 162.405 254.254 171.246C249.451 176.151 251.859 176.3 257.252 174.527C261.437 173.151 272.688 166.441 269.437 169.412C268.291 170.459 258.75 179.062 257.072 178.545C251.095 176.706 246.114 171.342 240.793 168.375" stroke="#89001D" stroke-width="5" stroke-linecap="round"/>
</svg>
