<svg width="535" height="96" viewBox="0 0 535 96" fill="none" xmlns="http://www.w3.org/2000/svg">
<path d="M532.501 27.2675C422.89 20.5257 314.221 7.95508 204.41 5.15753C141.289 3.54945 -47.4763 -1.15784 15.0047 7.92125C117.703 22.8443 223.844 22.3648 327.246 32.4002C367.31 36.2885 407.051 41.5004 446.912 47.0087C462.251 49.1284 474.232 52.7104 449.686 51.3517C340.133 45.2874 231.149 31.8106 121.595 25.2934C109.904 24.598 75.2658 24.259 86.5269 27.4649C127.805 39.2162 172.088 43.8458 214.316 50.3646C265.167 58.2146 316.84 63.1172 367.267 73.4617C385.381 77.1777 409.641 78.3371 426.505 85.8986C456.349 99.2797 361.154 91.0499 328.435 90.4391C273.981 89.4225 219.589 86.2904 165.182 84.1219" stroke="#89001D" stroke-width="5" stroke-linecap="round"/>
</svg>
